<?xml version="1.0" encoding="utf-8"?>
<!-- Generator: Adobe Illustrator 16.0.0, SVG Export Plug-In . SVG Version: 6.00 Build 0)  -->
<!DOCTYPE svg PUBLIC "-//W3C//DTD SVG 1.1//EN" "http://www.w3.org/Graphics/SVG/1.1/DTD/svg11.dtd">
<svg version="1.1" id="_x3C_Layer_x3E_" xmlns="http://www.w3.org/2000/svg" xmlns:xlink="http://www.w3.org/1999/xlink" x="0px"
	 y="0px" width="64px" height="64px" viewBox="0 0 64 64" enable-background="new 0 0 64 64" xml:space="preserve">
<g id="Organ_x2C__stomach">
	<path fill="#FF8A80" d="M48.783,9.985c-6.331-1.59-10.397-0.281-13.141,2.457C32.182,12.019,29.5,8.575,29.5,5h-5
		c0,5.287,3.423,10.266,8.171,11.865c-3.438,7.428-3.25,17.967-6.631,20.289c-2.203,1.514-5.211,0.815-7.729,1.551
		C16.953,37.343,15.075,36.5,13,36.5c-4.143,0-7.5,3.357-7.5,7.5v15h5V44c0-1.381,1.119-2.5,2.5-2.5c0.644,0,1.225,0.25,1.668,0.65
		c-2.707,5.981,1.682,11.395,6.99,12.986c17.361,5.204,30.287-7.809,35.722-24.502C60.207,21.949,57.818,12.254,48.783,9.985z"/>
	<path fill="#FF8A80" d="M48.783,9.985C27.036,4.524,31.888,33.139,26.04,37.154c-3.282,2.254-8.355-0.414-10.925,4.09
		c-3.612,6.334,0.968,12.221,6.543,13.893c17.361,5.204,30.287-7.809,35.722-24.503C60.207,21.949,57.818,12.254,48.783,9.985z"/>
	<path fill="#FF5252" d="M50.372,10.487c6.025,3.656,7.413,11.759,5.008,19.146c-5.435,16.694-18.36,29.707-35.722,24.503
		c-0.309-0.094-0.613-0.203-0.915-0.321c0.909,0.565,1.895,1.015,2.915,1.321c17.361,5.204,30.287-7.809,35.722-24.503
		C60.033,22.482,58.091,13.443,50.372,10.487z"/>
	<path fill="#FFFFFF" d="M23.158,55.137c-5.575-1.672-10.155-7.559-6.543-13.893c2.569-4.504,7.643-1.836,10.925-4.09
		c5.26-3.612,1.874-27.117,16.97-27.829c-16.233-0.284-12.598,24.14-17.97,27.829c-3.282,2.254-8.355-0.414-10.925,4.09
		c-3.612,6.334,0.968,12.221,6.543,13.893c2.568,0.77,5.03,1.111,7.395,1.128C27.496,56.162,25.363,55.797,23.158,55.137z"/>
	<path fill="#37474F" d="M11,59h-1V44c0-1.654,1.346-3,3-3c0.735,0,1.446,0.276,2.003,0.779l0.271,0.245l-0.151,0.332
		c-1.015,2.242-1.036,4.557-0.063,6.692c1.166,2.563,3.75,4.712,6.742,5.609c18.314,5.486,30.354-9.596,35.103-24.178
		c1.672-5.138,1.408-10.488-0.707-14.313c-1.598-2.891-4.203-4.86-7.536-5.696c-5.556-1.395-9.699-0.635-12.665,2.325l-0.173,0.173
		l-0.241-0.03C31.952,12.494,29,8.933,29,5h1c0,3.359,2.433,6.405,5.47,6.912c3.219-3.083,7.615-3.873,13.436-2.412
		c3.607,0.906,6.432,3.044,8.167,6.183c2.247,4.063,2.539,9.711,0.783,15.106c-4.888,15.013-17.335,30.528-36.341,24.826
		c-3.31-0.992-6.063-3.292-7.365-6.152c-1.043-2.289-1.073-4.755-0.095-7.153C13.737,42.108,13.373,42,13,42c-1.103,0-2,0.897-2,2
		V59z"/>
	<path fill="#37474F" d="M6,59H5V44c0-4.411,3.589-8,8-8c2.044,0,3.969,0.761,5.454,2.148c0.959-0.24,1.966-0.305,2.941-0.366
		c1.613-0.103,3.138-0.199,4.361-1.04c1.701-1.168,2.461-4.864,3.341-9.144c0.694-3.374,1.476-7.176,2.897-10.448
		C27.332,15.312,24,10.295,24,5h1c0,5.072,3.293,9.862,7.83,11.392l0.528,0.178l-0.233,0.506c-1.516,3.274-2.329,7.232-3.048,10.725
		c-0.924,4.491-1.721,8.37-3.754,9.767c-1.451,0.997-3.187,1.107-4.864,1.214c-1.065,0.067-2.072,0.132-3.008,0.404l-0.285,0.084
		l-0.21-0.211C16.634,37.73,14.874,37,13,37c-3.859,0-7,3.141-7,7V59z"/>
</g>
</svg>
