<?xml version="1.0" encoding="utf-8"?>
<!-- Generator: Adobe Illustrator 16.0.0, SVG Export Plug-In . SVG Version: 6.00 Build 0)  -->
<!DOCTYPE svg PUBLIC "-//W3C//DTD SVG 1.1//EN" "http://www.w3.org/Graphics/SVG/1.1/DTD/svg11.dtd">
<svg version="1.1" id="_x3C_Layer_x3E_" xmlns="http://www.w3.org/2000/svg" xmlns:xlink="http://www.w3.org/1999/xlink" x="0px"
	 y="0px" width="64px" height="64px" viewBox="0 0 64 64" enable-background="new 0 0 64 64" xml:space="preserve">
<g id="tooth_x2C__dentistry">
	<path fill="#FFFFFF" d="M40.5,5.5c-3.754,0-7.127,1.602-9.5,4.146C28.627,7.102,25.254,5.5,21.5,5.5c-7.18,0-13,5.82-13,13
		c0,8.5,4.958,11.049,6.576,18.501C17.447,47.912,18,58.5,21.5,58.5c3.754,0,0.5-21.792,9.5-21.146C40,38,36.746,58.5,40.5,58.5
		c3.5,0,4.053-10.589,6.424-21.5c1.618-7.451,6.576-10,6.576-18.5C53.5,11.32,47.68,5.5,40.5,5.5z"/>
	<path fill="#CFD8DC" d="M53.5,18.5c0-2.722-0.84-5.246-2.27-7.334C49.123,9.52,46.502,8.521,43.596,8.5
		c-2.484-0.018-4.805,0.666-6.783,1.861c-1.706,1.031-3.887,1.058-5.59,0.021c-2.059-1.253-4.49-1.95-7.092-1.878
		c-7.175,0.2-12.744,6.405-12.626,13.581c0.132,8.047,2.991,10.887,4.571,18.165c1.255,5.774,2,11.527,2.943,15.665
		c0.647,1.627,1.432,2.584,2.48,2.584c3.754,0,0.5-21.792,9.5-21.146C40,38,36.746,58.5,40.5,58.5c3.5,0,4.053-10.589,6.424-21.5
		C48.542,29.549,53.5,27,53.5,18.5z"/>
	<path fill="#ECEFF1" d="M30,35.354c2.434,0.175,3.894,1.809,4.81,4.089c3.219,4.065,3.062,12.952,4.146,16.988
		c3.183-0.884,4.702-11.007,6.968-21.431c1.618-7.451,6.576-10,6.576-18.5c0-1.678-0.321-3.279-0.9-4.752
		c-0.12-0.196-0.239-0.393-0.369-0.582C49.123,9.52,46.502,8.521,43.596,8.5c-2.484-0.018-4.805,0.666-6.783,1.861
		c-1.706,1.031-3.887,1.058-5.59,0.021c-2.059-1.253-4.49-1.95-7.092-1.878c-7.175,0.2-12.744,6.405-12.626,13.581
		c0.132,8.047,2.991,10.887,4.571,18.165c1.255,5.774,2,11.527,2.943,15.665c0.077,0.194,0.156,0.377,0.238,0.553
		c0.075,0.015,0.148,0.031,0.242,0.031C23.254,56.5,21,34.708,30,35.354z"/>
	<g>
		<path fill="#E6CAA0" d="M31.223,9.883c0.613,0.817,2.277,1.555,3.574,1.204L31.223,9.883z"/>
		<path fill="#37474F" d="M34.086,11.677c-1.298,0-2.66-0.689-3.263-1.494l0.8-0.6c0.521,0.694,1.993,1.307,3.044,1.021l0.261,0.965
			C34.656,11.643,34.373,11.677,34.086,11.677z"/>
	</g>
	<path fill="#37474F" d="M40.5,59c-1.919,0-2.308-3.146-2.846-7.502c-0.731-5.918-1.641-13.283-6.69-13.646
		c-5.016-0.358-5.902,7.247-6.625,13.343C23.802,55.727,23.414,59,21.5,59c-2.979,0-3.955-5.611-5.305-13.377
		c-0.478-2.749-0.972-5.591-1.608-8.516c-0.669-3.082-1.939-5.335-3.168-7.514C9.738,26.614,8,23.532,8,18.5
		C8,11.056,14.056,5,21.5,5c3.598,0,6.952,1.391,9.5,3.928C33.548,6.391,36.902,5,40.5,5C47.944,5,54,11.056,54,18.5
		c0,5.032-1.738,8.114-3.419,11.094c-1.229,2.179-2.5,4.432-3.168,7.513c-0.636,2.925-1.13,5.768-1.608,8.516
		C44.455,53.389,43.479,59,40.5,59z M30.614,36.84c0.138,0,0.278,0.005,0.422,0.015c5.869,0.422,6.876,8.571,7.611,14.521
		C39.03,54.48,39.465,58,40.5,58c2.138,0,3.149-5.815,4.319-12.549c0.458-2.631,0.976-5.611,1.616-8.558
		c0.701-3.229,2.01-5.548,3.275-7.791C51.402,26.104,53,23.27,53,18.5C53,11.607,47.393,6,40.5,6c-3.493,0-6.737,1.416-9.134,3.987
		L31,10.38l-0.366-0.393C28.237,7.416,24.993,6,21.5,6C14.607,6,9,11.607,9,18.5c0,4.77,1.598,7.604,3.29,10.603
		c1.265,2.243,2.574,4.563,3.275,7.792c0.64,2.946,1.158,5.927,1.615,8.557C18.351,52.185,19.362,58,21.5,58
		c1.025,0,1.461-3.678,1.846-6.923C24.098,44.734,25.035,36.84,30.614,36.84z"/>
</g>
</svg>
