<?xml version="1.0" encoding="utf-8"?>
<!-- Generator: Adobe Illustrator 16.0.0, SVG Export Plug-In . SVG Version: 6.00 Build 0)  -->
<!DOCTYPE svg PUBLIC "-//W3C//DTD SVG 1.1//EN" "http://www.w3.org/Graphics/SVG/1.1/DTD/svg11.dtd">
<svg version="1.1" id="_x3C_Layer_x3E_" xmlns="http://www.w3.org/2000/svg" xmlns:xlink="http://www.w3.org/1999/xlink" x="0px"
	 y="0px" width="64px" height="64px" viewBox="0 0 64 64" enable-background="new 0 0 64 64" xml:space="preserve">
<g id="heartbeat_rate">
	<g id="heart_favorite_1_">
		<g>
			<g>
				<g>
					<path fill="#FFFFFF" d="M40.993,11.5c-4.572,0-8.604,2.31-10.993,5.826C27.611,13.81,23.58,11.5,19.007,11.5
						c-7.336,0-13.282,5.946-13.282,13.283C5.725,40.355,30,55,30,55s24.275-14.645,24.275-30.217
						C54.275,17.446,48.329,11.5,40.993,11.5z"/>
				</g>
			</g>
		</g>
		<g>
			<g>
				<path fill="#84FFFF" d="M34,30.25l-3,14.875l-3-25.063l-3,16.969l-2-4.766L22,35H9.457c1.823,3,4.512,6.598,7.384,9.533
					C22.571,50.159,28.723,54.292,30,55.1C31.936,53.875,45.066,45,50.959,35H35L34,30.25z"/>
			</g>
		</g>
		<g>
			<g>
				<path fill="#FF8A80" d="M50.493,16.324C48.217,14.266,45.211,13,41.909,13c-4.252,0-8.22,2.103-10.614,5.626l-0.379,0.557
					l-0.379-0.557c-0.128-0.189-0.279-0.357-0.416-0.538L30,18.267l-0.379-0.557c-0.36-0.53-0.767-1.017-1.195-1.481
					C26.106,14.172,23.095,13,19.924,13c-7.072,0-12.825,6.003-12.825,13.075C7.099,29.019,8.003,32,9.457,35H22l1-2.75l2,4.875
					l3-17.063l3,24.969l3-14.766L35,35h15.959c1.742-4,2.858-6.575,2.858-9.841C53.817,21.855,52.551,18.6,50.493,16.324z"/>
			</g>
		</g>
		<g>
			<g>
				<path fill="#FF5252" d="M50.153,26.615c-0.247,2.472-1.232,5.211-2.695,8.01h3.398c1.789-3.142,2.944-6.451,2.958-9.777
					c-0.016-3.279-1.275-6.262-3.321-8.523c-2.148-1.943-4.949-3.165-8.033-3.298C44.473,13.612,51.189,16.247,50.153,26.615z"/>
			</g>
		</g>
		<g>
			<g>
				<path fill="#18FFFF" d="M50.641,35h-3.378C43.257,42.463,35.92,50.291,30,54.6c0.515-0.266,1.672-0.977,3.213-2.049
					c3.423-2.438,8.773-6.621,13.167-11.685C47.975,39.015,49.439,37.044,50.641,35z"/>
			</g>
		</g>
		<g>
			<g>
				<path fill="#37474F" d="M30,55.584l-0.258-0.156C28.741,54.824,5.225,40.457,5.225,24.783c0-7.6,6.183-13.783,13.782-13.783
					c4.333,0,8.391,2.032,10.993,5.469C32.602,13.032,36.66,11,40.993,11c7.6,0,13.782,6.183,13.782,13.783
					c0,15.674-23.516,30.042-24.517,30.645L30,55.584z M19.007,12c-7.048,0-12.782,5.734-12.782,12.783
					c0,14.26,21.177,27.999,23.775,29.629c2.598-1.632,23.775-15.375,23.775-29.629C53.775,17.734,48.041,12,40.993,12
					c-4.239,0-8.193,2.096-10.579,5.607L30,18.216l-0.414-0.608C27.201,14.096,23.246,12,19.007,12z"/>
			</g>
		</g>
	</g>
	<g>
		<g>
			<path fill="#37474F" d="M31,46.5c-0.006,0-0.012,0-0.018,0c-0.247-0.008-0.451-0.197-0.479-0.442l-2.607-22.593l-2.404,13.623
				c-0.039,0.22-0.219,0.388-0.441,0.411c-0.213,0.019-0.432-0.104-0.516-0.312L23,33.346l-0.536,1.339
				C22.388,34.875,22.205,35,22,35H5c-0.276,0-0.5-0.224-0.5-0.5S4.724,34,5,34h16.662l0.874-2.186c0.152-0.38,0.776-0.38,0.929,0
				l1.348,3.371l2.695-15.272c0.043-0.245,0.216-0.41,0.507-0.413c0.248,0.008,0.453,0.196,0.481,0.443l2.621,22.716l2.391-12.751
				c0.043-0.233,0.246-0.404,0.483-0.408c0.236,0.008,0.444,0.16,0.497,0.392L35.401,34H51c0.276,0,0.5,0.224,0.5,0.5
				S51.276,35,51,35H35c-0.234,0-0.438-0.163-0.488-0.392l-0.47-2.117l-2.55,13.601C31.447,46.329,31.24,46.5,31,46.5z"/>
		</g>
	</g>
	<g>
		<g>
			<path fill="#FFFFFF" d="M51.734,35H35c-0.234,0-0.438-0.163-0.488-0.392l-0.47-2.117l-2.55,13.601
				C31.447,46.329,31.24,46.5,31,46.5c-0.006,0-0.012,0-0.018,0c-0.247-0.008-0.451-0.197-0.479-0.442l-2.607-22.593l-2.404,13.623
				c-0.039,0.22-0.219,0.388-0.441,0.411c-0.017,0.002-0.033,0.002-0.05,0.002c-0.2,0-0.389-0.123-0.466-0.314L23,33.346
				l-0.536,1.339C22.388,34.875,22.205,35,22,35H8.166c0.191,0.335,0.386,0.669,0.59,1H22c0.322,0,0.625-0.101,0.873-0.278
				l0.734,1.835c0.226,0.564,0.786,0.943,1.395,0.943h0.051l0.101-0.008c0.664-0.068,1.208-0.575,1.323-1.232l1.212-6.868
				l1.82,15.78c0.084,0.732,0.703,1.302,1.439,1.327l0.017,0l0.034,0c0.721,0,1.341-0.515,1.474-1.223l1.948-10.391
				C34.601,35.96,34.796,36,35,36h16.144C51.348,35.669,51.543,35.335,51.734,35z"/>
		</g>
	</g>
	<g>
		<g>
			<path fill="#FFFFFF" d="M51,36c-1.103,0-2-0.897-2-2s0.897-2,2-2s2,0.897,2,2S52.103,36,51,36z M51,33c-0.551,0-1,0.449-1,1
				s0.449,1,1,1s1-0.449,1-1S51.551,33,51,33z"/>
		</g>
	</g>
	<g>
		<g>
			<circle fill="#37474F" cx="51" cy="34" r="1"/>
		</g>
	</g>
	<g>
		<g>
			<path fill="#FFFFFF" d="M51,40c-3.309,0-6-2.691-6-6s2.691-6,6-6s6,2.691,6,6S54.309,40,51,40z M51,29c-2.757,0-5,2.243-5,5
				s2.243,5,5,5s5-2.243,5-5S53.757,29,51,29z"/>
		</g>
	</g>
	<g>
		<g>
			<path fill="#37474F" d="M51,39c-2.757,0-5-2.243-5-5s2.243-5,5-5s5,2.243,5,5S53.757,39,51,39z M51,30c-2.206,0-4,1.794-4,4
				s1.794,4,4,4s4-1.794,4-4S53.206,30,51,30z"/>
		</g>
	</g>
	<g>
		<g>
			<path fill="#FFFFFF" d="M51,44c-5.514,0-10-4.486-10-10s4.486-10,10-10s10,4.486,10,10S56.514,44,51,44z M51,25
				c-4.962,0-9,4.038-9,9s4.038,9,9,9s9-4.038,9-9S55.962,25,51,25z"/>
		</g>
	</g>
	<g>
		<g>
			<path fill="#37474F" d="M51,43c-4.962,0-9-4.038-9-9s4.038-9,9-9s9,4.038,9,9S55.962,43,51,43z M51,26c-4.411,0-8,3.589-8,8
				s3.589,8,8,8s8-3.589,8-8S55.411,26,51,26z"/>
		</g>
	</g>
</g>
</svg>
