<?xml version="1.0" encoding="utf-8"?>
<!-- Generator: Adobe Illustrator 16.0.0, SVG Export Plug-In . SVG Version: 6.00 Build 0)  -->
<!DOCTYPE svg PUBLIC "-//W3C//DTD SVG 1.1//EN" "http://www.w3.org/Graphics/SVG/1.1/DTD/svg11.dtd">
<svg version="1.1" id="_x3C_Layer_x3E_" xmlns="http://www.w3.org/2000/svg" xmlns:xlink="http://www.w3.org/1999/xlink" x="0px"
	 y="0px" width="64px" height="64px" viewBox="0 0 64 64" enable-background="new 0 0 64 64" xml:space="preserve">
<g id="child_x2C__care_x2C__insurance_x2C__hands_x2C__baby">
	<g id="XMLID_2584_">
		<g id="XMLID_2574_">
			<path id="XMLID_2583_" fill="#FFFFFF" d="M47.861,6.043c-5.597-1.118-11.819,3.082-13.03,7.638
				c-2.487,1.132-3.997,6.444-0.977,9.593c-2.563-2.586-5.542-1.807-5.563,2.482c0,0-1.131-4.371-5.221-3.494
				c-2.789,0.598-4.949,5.004-5.33,7.863c-0.902-0.212-2.953,1.569-1.596,2.817c1.041,0.959,2.873,0.267,3.777-0.211
				c0.546-0.289,1.5-0.7,2.35-3.676c-0.145,0.44-0.26,0.896-0.33,1.323c-0.73,4.439,2.414,7.66,6.021,8.722
				c2.529,0.745,5.412,0.936,10.797-3.56c3.122-2.606,5.115-8.291,6.932-7.67c2.025,1.869,4.953,0.262,3.387-1.453
				c3.359-1.308,6.234-4.254,6.986-7.896C57.246,12.81,53.58,7.185,47.861,6.043z"/>
			<path id="XMLID_2580_" fill="#FFE0B2" d="M41.535,27.577c-0.762-0.478-1.734-0.741-2.295-1.12
				c-3.576-2.416-7.158-5.772-9.396-4.057c0.348-0.146,0.729-0.218,1.133-0.23c1.211-0.033,2.051,0.81,2.521,2.103
				c0.463,1.269,0.01,2.138-0.508,3.883c0.518-1.745,0.086-4.76-2.074-4.396c-2.207,0.417-1.873,4.332-1.248,6.34
				c-0.305-0.465-0.92-1.451-1.215-1.948c-0.146,1.592,0.17,2.832-0.84,4.088c1.904-5.837-0.309-7.928-3.078-8.366
				c-3.986-0.632-5.617,6.057-5.758,6.844c-0.975,0.267-2.189,1.281-1.664,1.959c0.602,0.774,1.361,0.481,2.225,0.045
				c0.609-0.308,1.402-1.119,2.109-2.047c0.244-0.455,0.516-0.985,0.822-1.621c-0.145,0.44-0.26,0.896-0.33,1.326
				c-0.02,0.109-0.023,0.217-0.037,0.326l-0.012,1.055c-0.016,0.022-0.033,0.041-0.049,0.063c0.086,3.688,2.918,6.334,6.117,7.276
				c2.529,0.744,6.646,0.925,10.797-3.561c1.602-1.729,2.607-3.082,3.188-4.15c0.506-0.932,2.553-2.44,2.516-3.004
				C44.412,27.623,42.102,27.933,41.535,27.577z"/>
			<path id="XMLID_2579_" fill="#FFE0B2" d="M48.066,7.732c-5.451-1.089-10.562,2.601-12.439,7.161l-0.084,0.182
				c-2.133,1.342-2.852,4.015-2.014,7.093c1.785,3.48,4.559,6.024,8.518,6.475c1.645,0.187,2.602,0.014,3.645-0.771
				c2.025,1.869,4.953,0.262,3.387-1.453c2.928-1.139,5.482-3.522,6.592-6.525c0.01-0.049,0.014-0.105,0.023-0.154
				c0.535-2.59,0.025-5.231-1.436-7.438C52.814,10.122,50.617,8.242,48.066,7.732z"/>
			<g>
				<path fill="#E6CAA0" d="M22.041,28.879c0.07-0.428,0.186-0.883,0.33-1.323c-0.85,2.976-1.803,3.387-2.35,3.676
					c-0.904,0.478-2.736,1.27-3.777,0.311c-0.133-0.123-0.23-0.249-0.31-0.376c-0.401,0.557-0.468,1.254,0.21,1.876
					c1.041,0.959,2.873,0.167,3.777-0.311c0.477-0.253,1.266-0.599,2.023-2.668C21.95,29.679,21.975,29.285,22.041,28.879z"/>
				<path fill="#E6CAA0" d="M56.164,17.021c-0.752,3.643-3.867,8.004-7.227,9.312c1.438,1.574-0.91,3.05-2.871,1.837
					c1.986,1.375,4.484-0.141,3.012-1.752c3.359-1.308,6.234-4.254,6.986-7.896c0.156-0.755,0.223-1.507,0.216-2.248
					C56.246,16.522,56.217,16.771,56.164,17.021z"/>
				<path fill="#E6CAA0" d="M45.551,27.786c-1.816-0.621-3.593,3.62-6.691,6.255c-4.9,4.167-9.301,4.101-11.196,3.26
					c-3.039-1.349-5.612-3.267-5.72-6.932c0,0.003-0.002,0.007-0.002,0.01c-0.73,4.439,2.414,7.66,6.021,8.722
					c2.529,0.745,5.1,1.722,10.797-3.56c2.961-2.744,5.083-8.201,6.891-7.676C45.617,27.838,45.583,27.816,45.551,27.786z"/>
			</g>
			<path fill="#37474F" d="M30.498,40.003c-0.846,0-1.696-0.134-2.676-0.423c-3.125-0.919-6.185-3.538-6.466-7.345
				c-0.439,0.539-0.844,0.752-1.145,0.909c-1.998,1.055-3.484,1.114-4.405,0.266c-0.609-0.561-0.814-1.257-0.578-1.96
				c0.292-0.866,1.174-1.504,2.007-1.736c0.125-2.603,2.83-7.319,5.73-7.941c0.395-0.084,0.782-0.127,1.151-0.127
				c1.954,0,3.241,1.209,3.977,2.415c0.686-2.195,2.312-3,3.72-2.695c-0.464-1.238-0.531-2.627-0.185-4.016
				c0.447-1.791,1.524-3.337,2.782-4.018c1.295-4.344,6.532-7.972,11.575-7.972c0.671,0,1.336,0.064,1.975,0.192
				c2.875,0.574,5.355,2.243,6.981,4.699c1.644,2.482,2.216,5.455,1.613,8.371c-0.712,3.447-3.261,6.471-6.718,8.02
				c0.224,0.457,0.248,0.935,0.055,1.37c-0.32,0.727-1.171,1.195-2.169,1.195c0,0,0,0,0,0c-0.811,0-1.612-0.313-2.272-0.882
				c-0.654-0.104-1.786,1.609-2.769,3.089c-1.03,1.55-2.197,3.308-3.596,4.506C35.833,38.706,33.105,40.003,30.498,40.003z
				 M21.796,28.899l0.956,0.294c-0.048,0.167-0.096,0.326-0.145,0.479c-0.069,0.253-0.13,0.526-0.173,0.788
				c-0.7,4.255,2.448,7.213,5.669,8.161c0.898,0.265,1.636,0.382,2.394,0.382c2.355,0,4.877-1.221,7.937-3.842
				c1.294-1.108,2.42-2.804,3.414-4.3c1.313-1.977,2.35-3.537,3.561-3.537c0.151,0,0.3,0.024,0.444,0.074l0.177,0.105
				c0.492,0.454,1.093,0.704,1.692,0.704h0c0.583,0,1.099-0.246,1.254-0.599c0.138-0.313-0.069-0.637-0.268-0.854l-0.492-0.538
				l0.68-0.265c3.384-1.317,6.005-4.273,6.678-7.532c0.549-2.652,0.028-5.357-1.468-7.616c-1.478-2.232-3.731-3.749-6.343-4.271
				c-0.574-0.114-1.173-0.173-1.779-0.173c-4.63,0-9.616,3.48-10.67,7.449l-0.061,0.229l-0.215,0.098
				c-1.064,0.484-2.045,1.873-2.44,3.456c-0.253,1.015-0.479,2.977,0.849,4.706c0.115,0.104,0.269,0.283,0.413,0.481l-0.766,0.641
				c-0.159-0.167-0.306-0.337-0.44-0.513c-0.388-0.371-0.912-0.605-1.429-0.605c-1.087,0-2.262,1.079-2.436,3.49l-0.216,3.004
				l-0.767-2.914c-0.035-0.132-0.884-3.236-3.69-3.236c-0.299,0-0.616,0.035-0.941,0.105c-2.519,0.539-5.119,5.243-4.937,7.331
				l0.043,0.494l-0.494,0.047c-0.674,0.063-1.427,0.599-1.611,1.146c-0.108,0.32-0.007,0.616,0.307,0.905
				c0.588,0.542,1.754,0.382,3.206-0.385c0.531-0.278,1.246-0.652,1.967-2.921C21.694,29.225,21.744,29.062,21.796,28.899z"/>
		</g>
		<path fill="#37474F" d="M49.75,14.439c-0.667,0-1.335-0.23-1.877-0.7c-0.698-0.605-1.118-1.446-1.183-2.367
			c-0.065-0.922,0.232-1.813,0.838-2.512c0.734-0.847,1.755-1.356,2.874-1.436c1.124-0.086,2.201,0.281,3.048,1.016l-0.655,0.756
			c-0.646-0.56-1.469-0.839-2.322-0.774c-0.852,0.061-1.63,0.449-2.189,1.094c-0.431,0.497-0.643,1.131-0.596,1.785
			c0.046,0.655,0.345,1.253,0.841,1.683c0.777,0.677,1.959,0.591,2.635-0.187c0.502-0.58,0.44-1.462-0.14-1.965l0.656-0.756
			c0.995,0.865,1.103,2.38,0.239,3.376C51.353,14.104,50.553,14.439,49.75,14.439z"/>
		<path fill="#37474F" d="M43.868,23.48c-2.183-0.261-2.667-2.506-2.686-2.601l0.979-0.203c0.014,0.067,0.366,1.636,1.826,1.812
			L43.868,23.48z"/>
		<path fill="#37474F" d="M37.916,23.186c-0.48,0-0.974-0.266-1.322-0.711c-0.357-0.459-0.498-1.022-0.376-1.508l0.97,0.242
			c-0.046,0.185,0.03,0.439,0.195,0.65c0.155,0.198,0.364,0.326,0.533,0.326V23.186z"/>
		<path fill="#37474F" d="M38.364,18.441c-2.184-0.616-2.32-2.984-2.325-3.085l0.999-0.049c0.004,0.071,0.113,1.752,1.597,2.171
			L38.364,18.441z"/>
		<path fill="#37474F" d="M33.915,32.83c-2.225,0-3.974-0.98-4.9-2.79c-1.074-2.096-1.419-4.799-0.838-6.574
			c0.288-0.88,0.799-1.525,1.479-1.866c0.999-0.5,1.899-0.599,2.676-0.292c0.792,0.312,1.396,1.016,1.793,2.092
			c0.367,0.993,0.479,2.122,0.422,3.023c0.497-0.17,1.14-0.307,1.764-0.192l-0.181,0.984c-0.879-0.171-1.948,0.459-1.958,0.465
			l-1.063,0.628l0.327-1.19c0.206-0.75,0.189-2.187-0.248-3.371c-0.295-0.797-0.707-1.305-1.223-1.509
			c-0.501-0.195-1.126-0.112-1.86,0.257c-0.441,0.221-0.77,0.653-0.977,1.283c-0.497,1.517-0.169,3.959,0.777,5.807
			c0.978,1.909,2.814,2.27,4.18,2.242c1.985-0.045,3.695-0.94,3.855-1.291l0.979,0.194c-0.156,0.917-2.017,1.737-3.726,2
			C34.751,32.797,34.325,32.83,33.915,32.83z"/>
		<path fill="#37474F" d="M27.637,33.563l-0.856-0.517c0.018-0.03,1.804-3.053,1.179-6.54l0.984-0.176
			C29.638,30.198,27.719,33.428,27.637,33.563z"/>
	</g>
	<g id="XMLID_1446_">
		<path id="XMLID_2376_" fill="#FFFFFF" d="M35.5,58.5V52c0-2.762,0.211-5.918,2.73-8.437c1.475-1.475,2.955-2.424,4.19-2.691
			l3.553-3.552c1.41-1.41,2.775-2.125,4.058-2.125c0.877,0,1.588,0.328,2.141,0.717l-0.141-0.131l0.156-0.332
			c0.299-0.634,0.313-1.447,0.313-1.455c0.008-0.171,0.174-3.827,0.561-5.752c0.342-1.7,1.491-2.715,3.074-2.715
			c1.143,0,2.365,0.592,2.365,1.473v8c0,0.609-0.16,1.536-0.365,2.11l-2.73,7.663c-0.213,0.597-0.752,1.392-1.227,1.811
			l-7.072,7.107C46.771,53.986,46.5,54.588,46.5,55v3.5H35.5z"/>
		<path id="XMLID_2374_" fill="#FFE0B2" d="M39.584,44.417C37.102,46.898,37,50.151,37,52.5V59h9.5v-3.5
			c0-0.553,0.336-1.296,0.75-1.661l7.097-7.13c0.415-0.365,0.901-1.083,1.087-1.604l2.73-7.663c0.186-0.521,0.336-1.39,0.336-1.942
			v-8c0-0.48-0.379-0.973-1.365-0.973c-1.055,0-2.232,0.564-2.584,2.313C54.167,30.75,54,34.5,54,34.5s-0.01,0.916-0.36,1.662
			L53,37.125c-0.48-0.445-0.391-0.93-1.969-0.93c-0.99,0-2.217,0.49-3.704,1.979l-3.661,3.66
			C42.635,42.01,41.207,42.794,39.584,44.417z"/>
		<g id="XMLID_2368_">
			<path id="XMLID_2370_" fill="#E6CAA0" d="M51.868,36.209c0.297,0.267,0.532,0.524,0.7,0.681l-7.854,7.854l0.693,0.691
				l8.092-8.311C53.059,36.716,53.083,36.278,51.868,36.209z"/>
		</g>
		<g id="XMLID_813_">
			<path id="XMLID_999_" fill="#E6CAA0" d="M58,35.5v-8c0-0.46-0.127-0.927-1.005-0.965c0.009,0,0.015,0.001,0.005,0.002V34.5
				c0,0.553-0.15,1.422-0.336,1.942l-2.73,7.663c-0.186,0.521-0.672,1.238-1.087,1.604l-7.097,7.13C45.336,53.204,45,53.947,45,54.5
				V56v2v1h1v-3.5c0-0.553,0.586-1.296,1-1.661l7.222-7.13c0.415-0.365,0.964-1.083,1.149-1.604l2.512-7.663
				C58.068,36.922,58,36.053,58,35.5z"/>
		</g>
		<path id="XMLID_1715_" fill="#37474F" d="M56.135,25.027c-1.42,0-3.103,0.818-3.564,3.116c-0.395,1.962-0.563,5.655-0.569,5.812
			c-0.004,0.208-0.049,0.729-0.212,1.153c-0.5-0.243-1.086-0.413-1.758-0.413c-1.42-0.001-2.904,0.764-4.411,2.271l-3.451,3.451
			c-1.31,0.325-2.785,1.284-4.292,2.792C35,46.086,35,49.933,35,52v7h1v-7c0-2.349,0.102-5.602,2.584-8.083
			c1.623-1.623,3.051-2.407,4.082-2.583l3.661-3.66c1.487-1.488,2.714-1.979,3.704-1.979c1.578,0,2.557,1.249,3.037,1.694
			l-7.854,7.854l0.693,0.691l8.576-8.577l-1.845-1.696C52.99,34.916,53,34,53,34s0.167-3.75,0.551-5.659
			c0.352-1.749,1.529-2.313,2.584-2.313C57.121,26.027,58,26.52,58,27v8c0,0.553-0.15,1.422-0.336,1.942l-2.73,7.663
			c-0.186,0.521-0.672,1.238-1.087,1.604l-7.097,7.13C46.336,53.704,46,54.447,46,55v4h1v-4c0-0.267,0.211-0.734,0.412-0.911
			l0.023-0.021l0.023-0.023l7.076-7.108c0.531-0.479,1.104-1.329,1.34-1.994l2.73-7.663C58.83,36.648,59,35.669,59,35v-8
			C59,25.781,57.513,25.027,56.135,25.027z"/>
		<g id="XMLID_1965_">
			<path id="XMLID_1966_" fill="#FFFFFF" d="M28.5,58.5V52c0-2.762-0.211-5.918-2.73-8.437c-1.475-1.475-2.955-2.424-4.19-2.691
				l-3.553-3.552c-1.41-1.41-2.775-2.125-4.058-2.125c-0.877,0-1.588,0.328-2.141,0.717l0.141-0.131l-0.156-0.332
				c-0.299-0.634-0.313-1.447-0.313-1.455c-0.008-0.171-0.174-3.827-0.561-5.752c-0.342-1.7-1.491-2.715-3.074-2.715
				C6.723,25.527,5.5,26.119,5.5,27v8c0,0.609,0.16,1.536,0.365,2.11l2.73,7.663c0.213,0.597,0.752,1.392,1.227,1.811l7.072,7.107
				C17.229,53.986,17.5,54.588,17.5,55v3.5H28.5z"/>
		</g>
		<g id="XMLID_1963_">
			<path id="XMLID_1964_" fill="#FFE0B2" d="M24.416,44.417C26.898,46.898,27,50.151,27,52.5V59h-9.5v-3.5
				c0-0.553-0.336-1.296-0.75-1.661l-7.097-7.13c-0.415-0.365-0.901-1.083-1.087-1.604l-2.73-7.663C5.65,36.922,5.5,36.053,5.5,35.5
				v-8c0-0.48,0.379-0.973,1.365-0.973c1.055,0,2.232,0.564,2.584,2.313C9.833,30.75,10,34.5,10,34.5s0.01,0.916,0.36,1.662
				L11,37.125c0.48-0.445,0.391-0.93,1.969-0.93c0.99,0,2.217,0.49,3.704,1.979l3.661,3.66
				C21.365,42.01,22.793,42.794,24.416,44.417z"/>
		</g>
		<g id="XMLID_1961_">
			<path id="XMLID_1962_" fill="#E6CAA0" d="M12.132,36.209c-0.297,0.267-0.532,0.524-0.7,0.681l7.854,7.854l-0.693,0.691
				L10.5,37.125C10.941,36.716,10.917,36.278,12.132,36.209z"/>
		</g>
		<g id="XMLID_1506_">
			<path id="XMLID_1524_" fill="#E6CAA0" d="M19,57v-2.5c0-0.553-0.336-1.296-0.75-1.661l-7.097-7.13
				c-0.415-0.365-0.901-1.083-1.087-1.604l-2.73-7.663C7.15,35.922,7,35.053,7,34.5v-7.963c-0.01-0.001-0.004-0.002,0.005-0.002
				C6.127,26.573,6,27.039,6,27.5v8c0,0.553-0.068,1.422,0.117,1.942l2.512,7.663c0.186,0.521,0.734,1.238,1.149,1.604L17,53.839
				c0.414,0.365,1,1.108,1,1.661V59h1v-1V57z"/>
		</g>
		<g id="XMLID_1667_">
			<path id="XMLID_2086_" fill="#37474F" d="M16.564,54.067l0.023,0.021C16.789,54.266,17,54.733,17,55v4h1v-4
				c0-0.553-0.336-1.296-0.75-1.661l-7.097-7.13c-0.415-0.365-0.901-1.083-1.087-1.604l-2.73-7.663C6.15,36.422,6,35.553,6,35v-8
				c0-0.48,0.879-0.973,1.865-0.973c1.055,0,2.232,0.564,2.584,2.313C10.833,30.25,11,34,11,34s0.01,0.916,0.36,1.662l-1.845,1.696
				l8.576,8.577l0.693-0.691l-7.854-7.854c0.48-0.445,1.459-1.694,3.037-1.694c0.99,0,2.217,0.49,3.704,1.979l3.661,3.66
				c1.031,0.176,2.459,0.96,4.082,2.583C27.898,46.398,28,49.651,28,52v7h1v-7c0-2.067,0-5.914-2.877-8.79
				c-1.507-1.508-2.982-2.467-4.292-2.792l-3.451-3.451c-1.507-1.508-2.991-2.272-4.411-2.271c-0.672,0-1.258,0.17-1.758,0.413
				c-0.163-0.424-0.208-0.945-0.212-1.153c-0.007-0.156-0.175-3.85-0.569-5.812c-0.462-2.298-2.145-3.116-3.564-3.116
				C6.487,25.027,5,25.781,5,27v8c0,0.669,0.17,1.648,0.395,2.278l2.73,7.663c0.236,0.665,0.809,1.515,1.34,1.994l7.076,7.108
				L16.564,54.067z"/>
		</g>
	</g>
</g>
</svg>
