<?xml version="1.0" encoding="utf-8"?>
<!-- Generator: Adobe Illustrator 16.0.0, SVG Export Plug-In . SVG Version: 6.00 Build 0)  -->
<!DOCTYPE svg PUBLIC "-//W3C//DTD SVG 1.1//EN" "http://www.w3.org/Graphics/SVG/1.1/DTD/svg11.dtd">
<svg version="1.1" id="_x3C_Layer_x3E_" xmlns="http://www.w3.org/2000/svg" xmlns:xlink="http://www.w3.org/1999/xlink" x="0px"
	 y="0px" width="64px" height="64px" viewBox="0 0 64 64" enable-background="new 0 0 64 64" xml:space="preserve">
<g id="lungs_x2C__Organ">
	<path id="XMLID_2075_" fill="#FFFFFF" d="M54.722,58.029l-14.011-7.311c-3.203-1.671-5.211-4.984-5.211-8.596V14.769
		c0-2.357,1.911-4.269,4.269-4.269l0,0c1.11,0,2.177,0.433,2.974,1.206l1.459,1.416C53.342,21.996,58.5,34.193,58.5,46.933v8.806
		C58.5,57.678,56.441,58.926,54.722,58.029z"/>
	<path id="XMLID_405_" fill="#FF8A80" d="M42.844,11.805c-0.497-0.197-1.03-0.305-1.575-0.305C38.911,11.5,37,13.411,37,15.769
		v27.354c0,2.99,1.391,5.759,3.681,7.577c0.011,0.005,0.02,0.013,0.03,0.019l14.011,7.311c1.72,0.896,3.778-0.352,3.778-2.291
		v-8.806c0-12.739-5.158-24.937-14.299-33.811L42.844,11.805z"/>
	<path id="XMLID_2072_" fill="#FF8A80" d="M9.278,58.029l14.011-7.311c3.203-1.671,5.211-4.984,5.211-8.596V14.769
		c0-2.357-1.911-4.269-4.269-4.269l0,0c-1.11,0-2.177,0.433-2.974,1.206l-1.459,1.416C10.658,21.996,5.5,34.193,5.5,46.933v8.806
		C5.5,57.678,7.559,58.926,9.278,58.029z"/>
	<path id="XMLID_2068_" fill="#FFFFFF" d="M9.278,58.029l14.011-7.311c3.203-1.671,5.211-4.984,5.211-8.596V14.769
		c0-2.357-1.911-4.269-4.269-4.269l0,0c-1.11,0-2.177,0.433-2.974,1.206l-1.459,1.416C10.658,21.996,5.5,34.193,5.5,46.933v8.806
		C5.5,57.678,7.559,58.926,9.278,58.029z"/>
	<path id="XMLID_406_" fill="#FF8A80" d="M9.278,58.029l13.841-7.223l0.67-0.588c0.74-0.387,1.409-0.869,2.012-1.414
		c1.695-1.775,2.699-4.148,2.699-6.682V14.769c0-1.153-0.462-2.196-1.205-2.964c-0.484-0.193-1.01-0.305-1.563-0.305
		c-1.11,0-2.177,0.433-2.974,1.206l-1.459,1.416C12.158,22.996,7,35.193,7,47.933v8.806c0,0.063,0.003,0.605,0.009,1.328
		C7.695,58.385,8.517,58.426,9.278,58.029z"/>
	<g id="XMLID_407_">
		<path id="XMLID_408_" fill="#ECEFF1" d="M33.5,24.182V5h-3v19.182c0,0.469-0.323,0.88-0.781,0.972
			c-3.547,0.711-6.219,3.341-6.219,7.097v1.25c0,0.553,0.447,1,1,1l0,0c0.553,0,1-0.447,1-1v-0.25c0-3.176,2.574-5.75,5.75-5.75h1.5
			c3.176,0,5.75,2.574,5.75,5.75v0.25c0,0.553,0.447,1,1,1l0,0c0.553,0,1-0.447,1-1v-1.25c0-3.756-2.672-6.386-6.219-7.097
			C33.823,25.062,33.5,24.65,33.5,24.182z"/>
		<path fill="#37474F" d="M46,42h-2.265c-2.187,0-4.152-1.215-5.13-3.171C38.209,38.037,38,37.149,38,36.264V33.5
			c0-3.032-2.468-5.5-5.5-5.5v-1c3.584,0,6.5,2.916,6.5,6.5v2.764c0,0.731,0.173,1.464,0.5,2.118C40.308,39.997,41.931,41,43.735,41
			H46V42z"/>
		
			<rect x="39.114" y="42" transform="matrix(0.3511 0.9363 -0.9363 0.3511 66.5602 -11.0463)" fill="#37474F" width="4.272" height="0.999"/>
		<path fill="#37474F" d="M20.265,42H18v-1h2.265c1.805,0,3.428-1.003,4.235-2.618c0.327-0.654,0.5-1.387,0.5-2.118V33.5
			c0-3.584,2.916-6.5,6.5-6.5h1.25v1H31.5c-3.032,0-5.5,2.468-5.5,5.5v2.764c0,0.886-0.209,1.773-0.605,2.565
			C24.417,40.785,22.451,42,20.265,42z"/>
		<path fill="#37474F" d="M48,36h-4.5c-1.846,0-3.362-1.437-3.491-3.25H40c0-3.442-2.446-6.431-5.816-7.105
			C33.498,25.506,33,24.891,33,24.182V5h1v19.182c0,0.235,0.16,0.438,0.381,0.482c3.753,0.752,6.5,4.024,6.615,7.836H41
			c0,1.379,1.121,2.5,2.5,2.5H48V36z"/>
		<path fill="#37474F" d="M20.5,36H16v-1h4.5c1.379,0,2.5-1.121,2.5-2.5h0.004c0.115-3.812,2.862-7.084,6.615-7.836
			C29.84,24.619,30,24.417,30,24.182V5h1v19.182c0,0.709-0.498,1.324-1.184,1.463C26.446,26.319,24,29.308,24,32.75h-0.009
			C23.862,34.563,22.346,36,20.5,36z"/>
		
			<rect x="22.25" y="40.364" transform="matrix(0.9361 0.3518 -0.3518 0.9361 16.404 -5.2864)" fill="#37474F" width="0.999" height="4.272"/>
		
			<rect x="44.25" y="32.047" transform="matrix(0.7677 0.6408 -0.6408 0.7677 32.1795 -20.7772)" fill="#37474F" width="1" height="3.905"/>
		
			<rect x="17.297" y="33.5" transform="matrix(0.6402 0.7682 -0.7682 0.6402 33.046 -2.5545)" fill="#37474F" width="3.905" height="1"/>
	</g>
	<g id="XMLID_417_">
		<g id="XMLID_418_">
			<path id="XMLID_419_" fill="#37474F" d="M44.55,12.764l-1.459-1.416C42.195,10.479,41.016,10,39.769,10
				C37.139,10,35,12.139,35,14.769v9.01c0.345,0.087,0.673,0.21,1,0.335v-9.345C36,12.69,37.69,11,39.769,11
				c0.985,0,1.918,0.378,2.625,1.064l1.459,1.416C52.844,22.209,58,34.402,58,46.933v8.806c0,0.734-0.375,1.4-1.003,1.781
				s-1.393,0.406-2.044,0.066l-14.011-7.311C37.894,48.686,36,45.561,36,42.123V30.707c-0.288-0.361-0.616-0.688-1-0.945v12.361
				c0,3.813,2.1,7.275,5.479,9.039l14.011,7.311c0.452,0.235,0.94,0.353,1.428,0.353c0.553,0,1.104-0.151,1.598-0.45
				C58.445,57.811,59,56.826,59,55.738v-8.806C59,34.133,53.733,21.68,44.55,12.764z"/>
			<path id="XMLID_420_" fill="#37474F" d="M28,30.707v11.416c0,3.438-1.894,6.563-4.942,8.152L9.047,57.586
				C8.396,57.925,7.631,57.9,7.003,57.52S6,56.473,6,55.738v-8.806c0-12.53,5.156-24.724,14.147-33.452l1.459-1.416
				C22.313,11.378,23.246,11,24.231,11C26.31,11,28,12.69,28,14.769v9.345c0.327-0.125,0.655-0.248,1-0.335v-9.01
				C29,12.139,26.861,10,24.231,10c-1.247,0-2.427,0.479-3.322,1.348l-1.459,1.416C10.267,21.68,5,34.133,5,46.933v8.806
				c0,1.088,0.555,2.072,1.484,2.637c0.494,0.299,1.045,0.45,1.598,0.45c0.487,0,0.976-0.117,1.428-0.353l14.011-7.311
				C26.9,49.398,29,45.936,29,42.123V29.762C28.616,30.02,28.288,30.346,28,30.707z"/>
		</g>
	</g>
</g>
</svg>
