<?xml version="1.0" encoding="utf-8"?>
<!-- Generator: Adobe Illustrator 16.0.0, SVG Export Plug-In . SVG Version: 6.00 Build 0)  -->
<!DOCTYPE svg PUBLIC "-//W3C//DTD SVG 1.1//EN" "http://www.w3.org/Graphics/SVG/1.1/DTD/svg11.dtd">
<svg version="1.1" id="_x3C_Layer_x3E_" xmlns="http://www.w3.org/2000/svg" xmlns:xlink="http://www.w3.org/1999/xlink" x="0px"
	 y="0px" width="64px" height="64px" viewBox="0 0 64 64" enable-background="new 0 0 64 64" xml:space="preserve">
<g id="Anatomy_x2C__cardiology_x2C__heart_x2C__organ">
	<g>
		<path fill="#FF5252" d="M48.202,25.476c0.784-0.312,6.376-2.868,8.798-3.978v-2.934c-2.55,0.523-15.447,6.248-16.991,5.73
			l0.251,3.344c0,0,0.854-0.172,2.056-0.457l0.689,2.286c1.053-0.87,9.8-0.28,13.995-0.3v-3.243
			C54.46,25.729,49.596,25.38,48.202,25.476z"/>
	</g>
	<g>
		<path fill="#37474F" d="M56.792,28.669c-1.139,0.001-2.579-0.039-4.096-0.081c-1.719-0.048-3.496-0.097-5.084-0.097
			c-2.446,0-3.648,0.124-4.289,0.297l-0.664-2.202L42.2,26.695c-0.605,0.144-1.123,0.259-1.484,0.337l-0.167-2.22
			c1.577-0.161,5.243-1.547,10.166-3.457c2.512-0.975,5.297-2.054,6.285-2.279v-1.02c-0.947,0.167-3.126,1-6.647,2.366
			c-3.91,1.518-8.775,3.405-10.083,3.405c-0.072,0-0.102-0.008-0.102-0.008l-0.714-0.238l0.35,4.658l0.555-0.111
			c0,0,0.65-0.131,1.614-0.354l0.775,2.528l0.576-0.45c0.108-0.085,0.739-0.362,4.288-0.362c1.575,0,3.345,0.049,5.057,0.096
			c1.527,0.043,2.977,0.083,4.124,0.082c0.076,0,0.137-0.001,0.208-0.001v-1C56.93,28.668,56.867,28.669,56.792,28.669z"/>
		<path fill="#37474F" d="M48.018,25.011l-2.983,1.183l3.201-0.219c1.375-0.098,6.247,0.256,8.764,0.451v-1.003
			c-1.714-0.133-4.443-0.331-6.491-0.419c1.985-0.895,4.831-2.195,6.491-2.955v-1.101C54.705,22,48.81,24.697,48.018,25.011z"/>
	</g>
	<g>
		<path fill="#FF5252" d="M39.772,10.214L41.736,6.5l-1.324-0.795l-2.851,3.254c-0.242-0.089-0.49-0.165-0.744-0.228l0.599-3.636
			l-1.56-0.355c0,0-1.649,3.8-1.918,3.833l-1.959-3.286L30.406,5.54l0.592,3.721C28.053,10.596,26.633,12.365,26,17
			c-0.922,6.75,3.134,9,7,9l9.5-10C42.5,13.671,41.438,11.59,39.772,10.214z"/>
	</g>
	<g>
		<g>
			<path fill="#FF5252" d="M19.75,28.667C18.408,29.412,8.989,27.356,6,27.152v3.138c1.19,0.218,3.072,0.397,3.818,0.544
				C8.5,30.986,7.008,31.84,6,32.292v3.574c2.926-0.241,10.452-2.287,11.75-1.565l0.26-2.374C19.243,31.987,20.114,32,20.114,32
				L19.75,28.667z"/>
		</g>
		<g>
			<path fill="#37474F" d="M13.064,30.961l-3.149-0.617c-0.357-0.07-0.969-0.148-1.644-0.233C7.645,30.03,6.663,29.905,6,29.787
				v1.011c0.29,0.051,1.631,0.103,2.045,0.16C7.67,31.08,6.324,31.612,6,31.75v1.09C8.083,31.581,13.064,30.961,13.064,30.961z"/>
			<path fill="#37474F" d="M20.165,27.864l-0.658,0.365c-0.018,0.011-0.198,0.1-0.88,0.1c-1.68,0-4.851-0.517-7.649-0.973
				C8.9,27.018,7.07,26.72,6,26.649v1.003c1.03,0.074,2.876,0.375,4.817,0.691c3.264,0.532,7.019,1.13,8.498,0.95l0.24,2.192
				c-0.37-0.01-0.899-0.028-1.521-0.059l-0.47-0.023l-0.248,2.261c-1.389-0.191-4.61,0.308-7.409,0.751
				C8.387,34.658,6.943,35.284,6,35.365v1.003c0.977-0.077,2.425-0.704,4.064-0.964c2.317-0.368,4.944-0.785,6.469-0.785
				c0.707,0,0.924,0.091,0.974,0.118l0.658,0.366l0.291-2.655c0.989,0.042,1.651,0.052,1.651,0.052l0.566,0.008L20.165,27.864z"/>
		</g>
	</g>
	<g>
		<path fill="#FF8A80" d="M43.221,22.64L43.221,22.64c11.696,8.86,1.612,9.942-7.456,6.063C30.11,26.282,35.865,16.634,43.221,22.64
			z"/>
		<path fill="#FF5252" d="M43.221,22.64c-1.537-1.256-3.002-1.82-4.311-1.917c0.744,0.313,1.517,0.769,2.311,1.417
			c9.37,7.098,4.76,9.2-2.106,7.763C46.984,32.197,53.478,30.41,43.221,22.64z"/>
		<path fill="#37474F" d="M44.799,31.329c-2.664,0-6.168-0.856-9.23-2.167c-1.601-0.686-2.542-2-2.584-3.608
			c-0.05-1.94,1.182-3.865,3.064-4.788c2.248-1.105,4.975-0.563,7.481,1.48c4.447,3.371,6.201,5.942,5.214,7.643
			C48.158,30.897,46.689,31.329,44.799,31.329z M38.52,21.2c-0.869,0-1.559,0.231-2.03,0.463c-1.515,0.742-2.544,2.332-2.505,3.865
			c0.031,1.218,0.733,2.182,1.977,2.714c5.769,2.468,11.05,2.641,11.918,1.145c0.245-0.423,0.612-2.127-4.96-6.349l-0.015-0.011
			C41.182,21.62,39.688,21.2,38.52,21.2z"/>
	</g>
	<path fill="#FF8A80" d="M48.794,29.995c-2.825,0.974-6.231,0.141-9.681-1.25C38.444,28.475,38,27.83,38,27.108V26.5
		c0-4.971,4.029-9,9-9h0.5c1.333-0.583,1.104-3,0-3H43c-2.209,0-4.289,0.551-6.111,1.523c-0.716,0.382-1.389-1.523-2.905-0.606
		c-2.046,1.235-2.066,3.416-1.849,4.942c-0.848,1.287-1.472,2.733-1.819,4.284c-0.519-0.236-1.029-0.464-1.521-0.665
		c-2.457-1.007-12.461,9.771-11.428,16.854C22.5,58.625,35.972,55.582,45.033,58.636c3.8,1.281,8.252-3.313,8.252-11.699
		C53.285,41.053,51.75,30.5,48.794,29.995z"/>
	<path fill="#FFFFFF" d="M46.533,58.636C37.472,55.582,24,58.625,18.866,40.833c-0.907-6.221,6.698-15.29,10.228-16.724
		c-0.099-0.042-0.203-0.092-0.3-0.131c-2.457-1.007-12.461,9.771-11.428,16.854C22.5,58.625,35.972,55.582,45.033,58.636
		c0.672,0.227,1.363,0.26,2.048,0.131C46.897,58.732,46.714,58.697,46.533,58.636z"/>
	<path fill="#FFFFFF" d="M30.476,24.058c0.438,0.183,0.884,0.378,1.34,0.586c0.348-1.551,0.972-2.997,1.819-4.284
		c-0.218-1.526-0.197-3.707,1.849-4.942c0.018-0.011,0.034-0.017,0.052-0.026c-0.41-0.241-0.903-0.366-1.552,0.026
		c-2.046,1.235-2.066,3.416-1.849,4.942C31.396,21.481,30.84,22.729,30.476,24.058z"/>
	<g>
		<path fill="#FF5252" d="M48.794,29.995c-0.285,0.099-0.58,0.166-0.877,0.229c2.22,2.559,3.368,11.127,3.368,16.213
			c0,7.685-3.736,12.169-7.286,11.884c0.35,0.099,0.696,0.201,1.034,0.315c3.8,1.281,8.252-3.313,8.252-11.699
			C53.285,41.053,51.75,30.5,48.794,29.995z"/>
	</g>
	<g>
		<path fill="#37474F" d="M46.315,59.347c-0.487,0-0.971-0.078-1.442-0.237c-2.088-0.704-4.409-1.076-6.867-1.472
			c-8.018-1.288-17.104-2.747-21.12-16.666c-0.803-5.471,4.563-12.994,8.574-16.129c1.545-1.207,2.73-1.651,3.523-1.327
			c0.323,0.133,0.655,0.275,0.991,0.426c0.356-1.31,0.906-2.551,1.641-3.699c-0.305-2.457,0.404-4.224,2.109-5.253
			c1.204-0.728,2.059-0.069,2.571,0.323c0.13,0.1,0.327,0.25,0.4,0.263C38.593,14.547,40.787,14,43,14h4.5
			c0.657,0,1.191,0.522,1.36,1.332c0.202,0.965-0.132,2.177-1.16,2.626L47.5,18H47c-4.687,0-8.5,3.813-8.5,8.5v0.608
			c0,0.516,0.314,0.977,0.801,1.173c4.063,1.64,7.028,2.035,9.33,1.241l0.121-0.042l0.126,0.021
			c3.744,0.64,4.907,13.003,4.907,17.435c0,5.126-1.652,9.372-4.421,11.36C48.397,58.991,47.35,59.347,46.315,59.347z
			 M28.422,24.411c-0.399,0-1.183,0.311-2.346,1.22c-3.907,3.053-8.922,10.286-8.215,15.13c3.825,13.243,12.202,14.589,20.303,15.89
			c2.5,0.401,4.861,0.781,7.029,1.512c1.177,0.396,2.418,0.162,3.588-0.678c1.936-1.39,4.004-4.891,4.004-10.548
			c0-6.244-1.658-15.743-3.965-16.423c-2.522,0.815-5.67,0.398-9.894-1.305c-0.867-0.351-1.427-1.175-1.427-2.101V26.5
			c0-5.238,4.262-9.5,9.5-9.5h0.382c0.452-0.262,0.611-0.932,0.5-1.463C47.826,15.27,47.687,15,47.5,15H43
			c-2.049,0-4.081,0.507-5.876,1.465c-0.57,0.305-1.07-0.078-1.437-0.358c-0.529-0.406-0.856-0.615-1.445-0.262
			c-1.392,0.841-1.919,2.294-1.612,4.444l0.026,0.188l-0.104,0.158c-0.831,1.261-1.42,2.646-1.749,4.118l-0.135,0.601l-0.561-0.255
			c-0.513-0.233-1.018-0.459-1.504-0.657C28.557,24.422,28.496,24.411,28.422,24.411z"/>
	</g>
	<g>
		<path fill="#FF8A80" d="M16.366,39.333c-1.621-3.539-1.033-12.25,6.453-16.121c1.555-0.804,4.541-0.895,7.172,0.561
			c2.467,1.364,1.181,5.825-2.665,8.81C22.438,36.375,18.188,43.313,16.366,39.333z"/>
	</g>
	<g>
		<g>
			<path fill="#37474F" d="M29.71,5.905l0.699,3.081c-0.969,0.477-1.744,1.033-2.392,1.695l0.099,1.383
				c0.769-1.096,1.782-1.757,3.088-2.349l0.385-0.174l-1.085-4.04C30.543,5.448,29.71,5.905,29.71,5.905z"/>
			<path fill="#37474F" d="M34.812,4.8c-0.186,0.633-0.667,2.106-0.859,2.635l-1.106-2.34l-0.867,0.192l1.663,3.827L34,9.069
				c0.311-0.038,0.987-1.404,1.856-4.329C35.938,4.71,34.812,4.8,34.812,4.8z"/>
			<path fill="#37474F" d="M39.527,5.236l-2.029,2.923l0.785-2.652c0,0-0.885-0.436-0.867-0.411l-1.22,3.995l0.5,0.125
				c0.236,0.059,0.468,0.13,0.694,0.213l0.368,0.134l2.654-3.857C40.517,5.706,39.527,5.236,39.527,5.236z"/>
			<path fill="#37474F" d="M42.451,7.223L41.736,6.5l-2.632,3.811l0.35,0.289c0.831,0.687,1.474,1.543,1.908,2.494
				c0.352-0.039,0.706-0.047,1.06-0.062c-0.437-1.093-1.105-2.088-1.988-2.904L42.451,7.223z"/>
		</g>
		<path fill="#FF8A80" d="M29.844,30.025c2.549-2.813,2.23-5.101,0.147-6.253c-0.854-0.472-1.743-0.767-2.61-0.942L26.5,10.5
			c-0.563-1.375-5.188-2-6,0v4.721c0,3.707-0.511,7.395-1.496,10.967c-3.805,4.316-3.92,10.346-2.638,13.146
			c1.156,2.526,3.291,0.653,5.946-2.021L29.844,30.025z"/>
		<path fill="#FF5252" d="M30.272,28.926c0.131,0.027,0.266,0.046,0.399,0.064c1.612-2.336,1.14-4.211-0.681-5.218
			c-0.854-0.472-1.743-0.767-2.61-0.942L26.5,10.5c-0.158-0.386-0.641-0.709-1.265-0.936l0.646,14.766
			c0.867,0.176,2.257-0.029,3.11,0.442C30.525,25.621,31.097,27.088,30.272,28.926z"/>
		<path fill="#FFFFFF" d="M17.866,38.833c-1.282-2.8-1.167-8.829,2.638-13.146C21.489,22.115,22,18.428,22,14.721V10
			c0.127-0.312,0.353-0.552,0.635-0.743C21.661,9.363,20.808,9.743,20.5,10.5v4.721c0,3.707-0.511,7.395-1.496,10.967
			c-3.805,4.316-3.92,10.346-2.638,13.146c0.66,1.443,1.642,1.447,2.855,0.689C18.684,39.982,18.228,39.622,17.866,38.833z"/>
		<path fill="#37474F" d="M17.831,41.026c-0.11,0-0.22-0.009-0.327-0.028c-0.669-0.119-1.204-0.609-1.593-1.457
			c-1.28-2.796-1.315-9.028,2.641-13.597C19.513,22.424,20,18.816,20,15.221l0.037-4.909c0.409-1.007,1.571-1.586,3.188-1.588
			c0.003,0,0.006,0,0.008,0c1.532,0,3.303,0.545,3.729,1.587l0.036,0.154l0.854,11.958c0.857,0.206,1.656,0.512,2.381,0.912
			c1.059,0.586,1.708,1.436,1.877,2.457c0.228,1.368-0.428,2.948-1.896,4.569l-0.74-0.672c1.256-1.386,1.826-2.677,1.65-3.733
			c-0.119-0.72-0.582-1.308-1.375-1.746c-0.738-0.408-1.569-0.708-2.468-0.89l-0.372-0.075l-0.901-12.613
			c-0.262-0.441-1.453-0.908-2.773-0.908c-0.003,0-0.005,0-0.007,0c-1.12,0.001-1.942,0.33-2.228,0.885v4.612
			c0,3.723-0.51,7.457-1.514,11.1l-0.107,0.198c-3.74,4.243-3.737,10.03-2.558,12.606c0.366,0.801,0.736,0.867,0.857,0.889
			c0.985,0.17,2.65-1.413,4.279-3.055l0.709,0.705C20.784,39.561,19.212,41.026,17.831,41.026z"/>
	</g>
	<g>
		<path fill="#37474F" d="M25.163,26.175l-0.576-0.816c2.183-1.539,2.294-2.54,2.295-2.55l0.999,0.021
			C27.881,23.068,27.75,24.352,25.163,26.175z"/>
	</g>
	<g>
		<path fill="#37474F" d="M36.364,30.517l-0.246-0.969c1.244-0.315,1.576-0.729,1.662-0.947c0.105-0.265-0.045-0.506-0.051-0.517
			l0.828-0.56C38.604,27.591,39,28.2,38.72,28.943C38.45,29.66,37.657,30.189,36.364,30.517z"/>
	</g>
</g>
</svg>
